<svg width="200" height="40" viewBox="0 0 200 40" fill="none" xmlns="http://www.w3.org/2000/svg"><path d="M148.987 8.66135L148.972 13.3188L148.399 12.4346C147.917 11.701 147.781 11.5252 147.575 11.3895C147.068 11.0579 146.053 10.7213 145.048 10.5505C144.224 10.4148 142.692 10.4249 141.898 10.5756C138.497 11.2187 136.135 13.4746 135.256 16.9363C134.965 18.0818 134.904 18.6345 134.904 20.1317C134.904 21.5938 134.965 22.1314 135.236 23.1814C135.643 24.7791 136.311 26.0201 137.326 27.0702C137.959 27.7233 138.532 28.1454 139.326 28.5272C140.953 29.316 142.903 29.522 144.898 29.1201C145.872 28.9241 147.033 28.4519 147.5 28.07C147.601 27.9846 147.972 27.4973 148.329 26.9798L148.972 26.0452L148.987 27.4621L148.997 28.8739L150.846 28.8638L152.69 28.8488V16.4389V4.02899L150.846 4.01391L148.997 4.00387L148.987 8.66135ZM144.737 13.2234C147.003 13.565 148.535 15.2632 148.892 17.8356C149.038 18.8807 149.002 20.9708 148.821 22.0158C148.46 24.0958 147.455 25.5428 145.907 26.196C144.636 26.7386 143.023 26.7336 141.878 26.1909C141.33 25.9297 140.964 25.6584 140.526 25.1911C140.079 24.7088 139.738 24.1712 139.451 23.4879C138.667 21.6038 138.592 18.7701 139.275 16.7353C139.823 15.0974 140.818 13.9921 142.225 13.4645C143.008 13.1681 143.847 13.0877 144.737 13.2234Z" fill="white"></path><path d="M4 20.2259V34.9219H6.3614H8.72279V20.2259V5.53002H6.3614H4V20.2259Z" fill="white"></path><path d="M13.8843 6.22292C15.3615 9.33796 16.2005 12.3173 16.4618 15.4073C16.5271 16.1961 16.5271 18.1203 16.4568 18.9343C16.2106 21.9639 15.3514 25.0136 13.8843 28.1086L13.5527 28.7969L16.1704 28.7868L18.793 28.7718L18.9839 28.2945C20.7877 23.8731 21.5262 19.4116 21.1795 15.0304C20.9585 12.2269 20.23 9.15708 19.1146 6.3636L18.793 5.55972L16.1754 5.54465L13.5527 5.5346L13.8843 6.22292Z" fill="white"></path><path d="M24.5977 5.54967C24.5977 5.55972 24.7735 5.94157 24.9946 6.39375C27.2706 11.1366 28.0393 16.0303 27.2605 20.8586C26.8837 23.1697 26.0949 25.6467 24.9946 27.9377C24.7735 28.3899 24.5977 28.7718 24.5977 28.7818C24.5977 28.7868 25.7733 28.7969 27.2052 28.7969H29.8128L29.9736 28.405C31.0036 25.9381 31.7522 23.1697 32.0788 20.6325C32.2345 19.3915 32.2848 18.5876 32.2848 17.1657C32.2848 15.7439 32.2345 14.94 32.0788 13.699C31.7522 11.1618 31.0036 8.3934 29.9736 5.92147L29.8128 5.5346H27.2052C25.7733 5.5346 24.5977 5.54465 24.5977 5.54967Z" fill="white"></path><path d="M48.0098 17.2109V28.8672H49.8687H51.7277V24.275V19.6829L54.8578 19.6577C58.0432 19.6376 58.4502 19.6125 59.4249 19.4166C62.1078 18.879 64.0723 17.1004 64.7104 14.6285C64.8963 13.92 64.9566 13.3975 64.9515 12.5133C64.9415 10.4634 64.3336 8.85058 63.1127 7.63471C61.9621 6.48918 60.4548 5.84608 58.41 5.63003C57.8724 5.56974 56.7419 5.55467 52.8732 5.55467H48.0098V17.2109ZM57.4554 8.61946C58.1587 8.68478 58.5758 8.78024 59.038 8.99628C59.9826 9.43339 60.5804 10.1669 60.8819 11.2572C60.9723 11.5988 60.9924 11.7948 60.9924 12.5635C60.9974 13.6337 60.9321 13.9653 60.5855 14.6938C60.279 15.3369 59.7866 15.8393 59.1636 16.1408C58.2894 16.5678 57.9427 16.608 54.5312 16.6432L51.7277 16.6733V12.6188V8.56922H54.3051C55.717 8.56922 57.1388 8.59434 57.4554 8.61946Z" fill="white"></path><path d="M74.078 10.486C72.5104 10.6669 71.0434 11.2296 69.9029 12.0837C69.2196 12.6012 68.4408 13.4202 67.9886 14.0934C66.5517 16.2639 66.0292 19.2332 66.5467 22.288C67.039 25.192 68.481 27.3072 70.7469 28.4377C72.1537 29.1411 74.0177 29.4475 75.7913 29.2717C79.1023 28.9351 81.529 27.1665 82.5188 24.3731C82.6544 23.9862 82.8704 23.1974 82.8704 23.0768C82.8704 23.0567 82.0264 23.0416 80.9964 23.0416H79.1274L79.0118 23.4787C78.7857 24.368 78.228 25.2423 77.59 25.7296C77.183 26.0361 76.5801 26.3275 76.0626 26.4631C75.4848 26.6189 74.3393 26.6189 73.7112 26.4682C71.802 25.9959 70.6113 24.3278 70.3098 21.6951C70.2797 21.4288 70.2445 21.1475 70.2345 21.0671L70.2144 20.9314H76.6354H83.0614L83.1016 20.7656C83.1719 20.4441 83.1418 18.4696 83.0513 17.8013C82.8353 16.2087 82.3329 14.8119 81.5591 13.6413C81.1773 13.0735 80.2528 12.1239 79.7052 11.7521C78.4139 10.8729 76.8012 10.4157 75.0477 10.4358C74.7211 10.4408 74.284 10.4609 74.078 10.486ZM76.0777 13.2695C76.5047 13.37 77.0473 13.6312 77.4292 13.9126C78.4039 14.6361 79.0721 16.0981 79.2831 17.9521L79.3183 18.2686H74.7864H70.2596L70.2897 18.0526C70.5058 16.5453 71.0434 15.2993 71.8322 14.4652C72.5155 13.7468 73.2691 13.3599 74.3192 13.1941C74.701 13.1338 75.6858 13.174 76.0777 13.2695Z" fill="white"></path><path d="M93.0075 10.489C92.7864 10.5141 92.3493 10.5895 92.0328 10.6599C88.2897 11.4989 85.8279 14.4833 85.3907 18.7137C85.3154 19.4473 85.3606 21.2711 85.4711 21.9845C86.0188 25.4914 87.7873 27.8378 90.626 28.8074C93.6657 29.8525 97.3032 29.2646 99.4838 27.3705C100.604 26.3958 101.433 24.9639 101.79 23.3762L101.865 23.0396L99.9812 23.0497L98.092 23.0647L98.0016 23.4566C97.7604 24.4615 97.1123 25.396 96.2733 25.9285C95.5498 26.3958 94.8715 26.5767 93.8616 26.5717C93.0979 26.5717 92.6508 26.5013 92.1283 26.2903C90.8672 25.7778 89.993 24.6725 89.5408 23.0145C89.4152 22.5623 89.2142 21.3565 89.2142 21.0651V20.9294H95.6201C101.674 20.9294 102.031 20.9244 102.066 20.839C102.086 20.7938 102.101 20.1758 102.101 19.4724C102.096 18.0706 102.041 17.518 101.775 16.483C101.097 13.795 99.4888 11.8556 97.2128 10.9764C96.6802 10.7754 95.7156 10.5443 95.1328 10.479C94.56 10.4187 93.5752 10.4237 93.0075 10.489ZM94.6253 13.1971C96.4391 13.4433 97.6198 14.7295 98.0971 16.9653C98.1523 17.2265 98.2126 17.5732 98.2327 17.739C98.2478 17.9048 98.2729 18.0907 98.288 18.151L98.3081 18.2666H93.7812H89.2494L89.2845 17.9551C89.375 17.1763 89.7417 16.0408 90.1236 15.3826C91.0681 13.7447 92.7312 12.9358 94.6253 13.1971Z" fill="white"></path><path d="M123.624 10.4845C120.137 10.8764 117.494 13.067 116.424 16.4483C116.238 17.0261 116.083 17.7396 115.982 18.4681C115.902 19.0258 115.902 20.8596 115.982 21.5329C116.51 26.0798 119.092 28.813 123.282 29.2652C124.649 29.4159 126.141 29.2551 127.468 28.813C129.98 27.979 131.648 26.1652 132.316 23.5426C132.371 23.3265 132.416 23.1255 132.416 23.0954C132.416 23.0552 131.854 23.0401 130.542 23.0401H128.673L128.558 23.4772C128.246 24.6981 127.528 25.6075 126.463 26.1351C125.774 26.4767 125.347 26.5672 124.478 26.5722C123.418 26.5822 122.745 26.4064 122.011 25.9291C120.826 25.1604 120.012 23.5174 119.831 21.5077C119.816 21.3118 119.791 21.1058 119.775 21.0405L119.755 20.9299H126.181H132.612L132.653 20.739C132.723 20.3773 132.688 18.4731 132.597 17.7898C132.15 14.4788 130.447 12.0471 127.854 11.0121C126.634 10.5247 125.041 10.3238 123.624 10.4845ZM125.624 13.268C126.051 13.3685 126.593 13.6297 126.975 13.9111C127.94 14.6295 128.648 16.1569 128.824 17.9254L128.859 18.2671H124.332H119.801L119.831 18.0762C120.102 16.4031 120.584 15.2827 121.408 14.4336C122.077 13.7402 122.835 13.3584 123.865 13.1926C124.252 13.1323 125.232 13.1725 125.624 13.268Z" fill="white"></path><path d="M163.724 10.4668C160.835 10.7933 158.534 12.3308 157.273 14.7826C155.756 17.7369 155.701 22.0075 157.148 24.8964C158.233 27.0669 160.031 28.4536 162.408 28.946C164.277 29.3328 166.508 29.0766 168.03 28.3029C168.754 27.9361 168.804 27.8808 169.512 26.8609C169.869 26.3384 170.175 25.9013 170.19 25.8862C170.206 25.8711 170.206 26.5042 170.19 27.293C170.155 29.1319 170.05 29.78 169.628 30.6592C168.949 32.061 167.754 32.8699 165.995 33.1261C165.382 33.2115 163.92 33.1563 163.362 33.0256C161.624 32.6237 160.509 31.5083 160.318 29.9809L160.283 29.6795L158.444 29.6644L156.61 29.6544L156.65 30.0412C157.012 33.4979 159.233 35.4775 163.272 35.9397C163.965 36.0201 165.829 36.0201 166.462 35.9397C168.728 35.6584 170.417 34.9198 171.663 33.6738C172.808 32.5282 173.481 31.0863 173.808 29.0967C173.888 28.6244 173.893 27.7602 173.908 19.7164L173.928 10.8637L172.08 10.8737L170.231 10.8888L170.206 12.0645L170.18 13.2402L169.593 12.3559C169.065 11.5621 168.975 11.4515 168.738 11.3159C167.573 10.6476 165.402 10.2758 163.724 10.4668ZM166.442 13.2954C167.372 13.5316 168.04 13.9234 168.703 14.6218C169.527 15.491 169.989 16.5963 170.155 18.0886C170.251 18.9326 170.195 21.0177 170.065 21.7663C169.623 24.2332 168.427 25.7154 166.462 26.2429C165.885 26.3936 164.659 26.4338 164.071 26.3183C162.207 25.9415 160.875 24.4894 160.328 22.2486C159.971 20.7765 159.961 18.7718 160.303 17.3349C160.72 15.5815 161.639 14.2902 162.945 13.6371C163.337 13.4411 164.011 13.2351 164.453 13.1748C165.005 13.1045 165.895 13.1547 166.442 13.2954Z" fill="white"></path><path d="M185 10.4924C181.624 10.8743 178.986 13.0247 177.896 16.2954C177.464 17.5817 177.308 18.7774 177.353 20.4053C177.393 21.8523 177.564 22.8672 177.946 23.9926C178.765 26.3741 180.383 28.0421 182.619 28.8109C185.015 29.6348 187.889 29.4489 190.07 28.3285C191.959 27.3588 193.3 25.5752 193.783 23.3796L193.858 23.043L191.974 23.0531L190.085 23.0681L189.994 23.46C189.708 24.6759 188.864 25.7159 187.758 26.2133C187.181 26.4746 186.648 26.5801 185.854 26.5751C184.583 26.5751 183.744 26.2736 182.945 25.5451C182.081 24.7563 181.528 23.4952 181.287 21.7468C181.242 21.4353 181.207 21.1237 181.207 21.0584V20.9328H187.608C192.526 20.9328 194.024 20.9178 194.049 20.8725C194.119 20.762 194.134 18.9432 194.074 18.285C193.622 13.3814 190.552 10.392 186.02 10.4372C185.678 10.4422 185.221 10.4673 185 10.4924ZM186.618 13.2005C188.01 13.3914 188.969 14.135 189.632 15.5418C189.874 16.0493 190.105 16.8833 190.195 17.5666C190.23 17.8027 190.266 18.0539 190.276 18.1293L190.301 18.27H185.769H181.242L181.277 17.9585C181.368 17.1797 181.734 16.0442 182.116 15.3861C183.061 13.7482 184.724 12.9392 186.618 13.2005Z" fill="white"></path><path d="M112.929 10.5337C112.366 10.6442 111.517 11.006 111.085 11.3225C110.929 11.4381 110.708 11.7546 110.131 12.6941L109.382 13.915L109.367 12.3977L109.357 10.8804L107.508 10.8904L105.664 10.9055V19.8738V28.8421L107.508 28.8571L109.347 28.8672L109.372 23.6822C109.387 19.1754 109.402 18.4218 109.477 17.9696C109.709 16.4975 110.126 15.578 110.914 14.7943C111.281 14.4275 111.427 14.322 111.874 14.1009C112.623 13.7341 113.025 13.6387 114.055 13.5985L114.909 13.5683V12.1113V10.6543L114.582 10.5689C114.225 10.4784 113.316 10.4583 112.929 10.5337Z" fill="white"></path></svg>